<?xml version="1.0" encoding="UTF-8"?>
<svg width="45px" height="45px" viewBox="0 0 45 45" version="1.1" xmlns="http://www.w3.org/2000/svg" xmlns:xlink="http://www.w3.org/1999/xlink">
    <!-- Generator: Sketch 48.2 (47327) - http://www.bohemiancoding.com/sketch -->
    <title>Shape</title>
    <desc>Created with Sketch.</desc>
    <defs></defs>
    <g id="Page-1" stroke="none" stroke-width="1" fill="none" fill-rule="evenodd">
        <g id="Cloud-Drizzle" fill="#FFFFFF" fill-rule="nonzero">
            <path d="M36.943,31.941 L36.943,27.56 C39.33,26.175 40.941,23.599 40.941,20.64 C40.941,16.222 37.361,12.64 32.943,12.64 C31.341,12.64 29.859,13.121 28.609,13.931 C27.377,8.615 22.636,4.641 16.945,4.641 C10.318,4.641 4.947,10.013 4.947,16.64 C4.947,20.189 6.496,23.369 8.945,25.566 L8.945,30.48 C4.168,27.712 0.947,22.558 0.947,16.64 C0.947,7.804 8.109,0.642 16.945,0.642 C22.949,0.642 28.174,3.954 30.91,8.845 C31.574,8.732 32.246,8.64 32.943,8.64 C39.57,8.64 44.941,14.013 44.941,20.64 C44.941,25.861 41.6,30.293 36.943,31.941 Z M14.945,20.641 C16.049,20.641 16.945,21.536 16.945,22.641 L16.945,26.639 C16.945,27.744 16.049,28.639 14.945,28.639 C13.84,28.639 12.945,27.744 12.945,26.639 L12.945,22.641 C12.945,21.535 13.84,20.641 14.945,20.641 Z M14.945,32.639 C16.049,32.639 16.945,33.534 16.945,34.639 L16.945,38.637 C16.945,39.742 16.049,40.637 14.945,40.637 C13.84,40.637 12.945,39.742 12.945,38.637 L12.945,34.639 C12.945,33.533 13.84,32.639 14.945,32.639 Z M22.943,24.639 C24.048,24.639 24.943,25.535 24.943,26.639 L24.943,30.639 C24.943,31.743 24.048,32.639 22.943,32.639 C21.839,32.639 20.945,31.743 20.945,30.639 L20.945,26.639 C20.945,25.535 21.84,24.639 22.943,24.639 Z M22.943,36.639 C24.048,36.639 24.943,37.534 24.943,38.637 L24.943,42.637 C24.943,43.742 24.048,44.637 22.943,44.637 C21.839,44.637 20.945,43.742 20.945,42.637 L20.945,38.637 C20.945,37.533 21.84,36.639 22.943,36.639 Z M30.943,20.641 C32.047,20.641 32.943,21.536 32.943,22.641 L32.943,26.639 C32.943,27.744 32.047,28.639 30.943,28.639 C29.838,28.639 28.943,27.744 28.943,26.639 L28.943,22.641 C28.943,21.535 29.838,20.641 30.943,20.641 Z M30.943,32.639 C32.047,32.639 32.943,33.534 32.943,34.639 L32.943,38.637 C32.943,39.742 32.047,40.637 30.943,40.637 C29.838,40.637 28.943,39.742 28.943,38.637 L28.943,34.639 C28.943,33.533 29.838,32.639 30.943,32.639 Z" id="Shape"></path>
        </g>
    </g>
</svg>