<?xml version="1.0" encoding="UTF-8"?>
<svg width="13px" height="18px" viewBox="0 0 13 18" version="1.1" xmlns="http://www.w3.org/2000/svg" xmlns:xlink="http://www.w3.org/1999/xlink">
    <!-- Generator: Sketch 48.2 (47327) - http://www.bohemiancoding.com/sketch -->
    <title>Humidity</title>
    <desc>Created with Sketch.</desc>
    <defs></defs>
    <g id="Page-1" stroke="none" stroke-width="1" fill="none" fill-rule="evenodd">
        <g id="Humidity" fill="#FFFFFF" fill-rule="nonzero">
            <path d="M6.49999998,17.9999317 C5.59407658,18.0039637 4.69642119,17.8233907 3.85929859,17.4687277 C2.72500169,16.9903987 1.75133079,16.1840437 1.0572762,15.1482058 C0.367415799,14.1169478 -0.0011968,12.8958598 2.89999999e-06,11.6458188 C0.00390869999,10.7597168 0.181126399,9.88339584 0.521193998,9.06858986 C1.1118772,7.61985188 3.19167769,4.58004493 4.86197099,2.13498197 L4.92153559,2.04856597 C5.39308948,1.35723898 5.83982468,0.704035989 6.19473098,0.167748997 C6.26333488,0.063797999 6.37748938,0.00106899998 6.49999998,0 C6.62339048,0.000230999996 6.73865228,0.063057999 6.80775088,0.167748997 C7.18251208,0.737076988 7.65158408,1.42332098 8.13802898,2.13498197 C9.80584037,4.57750293 11.8831591,7.61476888 12.4763242,9.06858986 C12.8171794,9.88323584 12.9952396,10.7595498 12.9999971,11.6458188 C13.0011968,12.8958598 12.6325842,14.1169478 11.9427238,15.1482058 C11.2485627,16.1839427 10.2749243,16.9902707 9.14070137,17.4687277 C8.30359798,17.8234567 7.40592958,18.0040317 6.49999998,17.9999317 Z M6.5,1.059866 C6.2071403,1.494487 5.8745707,1.987567 5.5295919,2.495896 L5.4700272,2.582312 C3.906454,4.869792 1.7670888,8.001099 1.2061879,9.373588 C0.904391,10.096764 0.7474148,10.874622 0.7445616,11.661068 C0.7436119,12.75788 1.067238,13.829241 1.672778,14.733918 C2.2876029,15.649722 3.1501973,16.36172 4.1546402,16.782484 C5.6661246,17.413373 7.3586941,17.413373 8.8701784,16.782484 C9.8745472,16.361592 10.7371089,15.649621 11.3520406,14.733918 C11.9516833,13.822035 12.2667212,12.745136 12.2554384,11.645819 C12.251868,10.859191 12.0940437,10.081313 11.7913302,9.358338 C11.2155382,7.985849 9.0910641,4.857084 7.5299728,2.572145 C7.1651391,2.040941 6.8127146,1.524987 6.5,1.057324 L6.5,1.059866 Z" id="Shape"></path>
        </g>
    </g>
</svg>