<?xml version="1.0" encoding="UTF-8"?>
<svg width="44px" height="45px" viewBox="0 0 44 45" version="1.1" xmlns="http://www.w3.org/2000/svg" xmlns:xlink="http://www.w3.org/1999/xlink">
    <!-- Generator: Sketch 48.2 (47327) - http://www.bohemiancoding.com/sketch -->
    <title>Shape</title>
    <desc>Created with Sketch.</desc>
    <defs></defs>
    <g id="Page-1" stroke="none" stroke-width="1" fill="none" fill-rule="evenodd">
        <g id="Cloud-Lightning" fill="#FFFFFF" fill-rule="nonzero">
            <path d="M31.999,32.641 C31.719,32.641 31.35,32.641 30.937,32.641 L34.522,28.229 C37.703,27.172 39.999,24.176 39.999,20.641 C39.999,16.223 36.418,12.643 32,12.643 C30.399,12.643 28.917,13.123 27.667,13.933 C26.435,8.617 21.693,4.643 16.002,4.643 C9.376,4.643 4.004,10.015 4.004,16.643 C4.004,22.089 7.636,26.681 12.608,28.147 L11.259,31.924 C4.739,29.903 0.004,23.826 0.004,16.642 C0.004,7.807 7.167,0.643 16.002,0.643 C22.006,0.643 27.231,3.955 29.967,8.847 C30.631,8.733 31.304,8.642 32,8.642 C38.627,8.642 43.999,14.013 43.999,20.64 C43.999,27.267 38.626,32.641 31.999,32.641 Z M20.001,18.641 L29.999,18.641 L24,28.641 L30.999,28.641 L18.001,44.639 L21.601,32.641 L15.001,32.641 L20.001,18.641 Z" id="Shape"></path>
        </g>
    </g>
</svg>